<?xml version="1.0" encoding="utf-8"?>
<!-- Generator: Adobe Illustrator 16.0.0, SVG Export Plug-In . SVG Version: 6.00 Build 0)  -->
<!DOCTYPE svg PUBLIC "-//W3C//DTD SVG 1.1//EN" "http://www.w3.org/Graphics/SVG/1.1/DTD/svg11.dtd">
<svg version="1.1" id="Layer_2" xmlns="http://www.w3.org/2000/svg" xmlns:xlink="http://www.w3.org/1999/xlink" x="0px" y="0px"
	 width="612px" height="792px" viewBox="0 0 612 792" enable-background="new 0 0 612 792" xml:space="preserve">
<polyline fill="none" stroke="#FFFFFF" stroke-width="23" stroke-miterlimit="10" points="463.504,423.667 463.504,478.481 
	286,580.964 108.497,478.481 108.497,426.334 "/>
<polyline fill="none" stroke="#FFFFFF" stroke-width="23" stroke-miterlimit="10" points="108.497,325.667 108.497,273.518 
	286,171.037 463.504,273.518 463.504,321.667 "/>
<line fill="none" stroke="#FFFFFF" stroke-width="10" stroke-miterlimit="10" x1="108.497" y1="305" x2="288.383" y2="207.667"/>
<line fill="none" stroke="#FFFFFF" stroke-width="10" stroke-miterlimit="10" x1="463.504" y1="305" x2="283.5" y2="207.667"/>
<line fill="none" stroke="#FFFFFF" stroke-width="10" stroke-miterlimit="10" x1="108.497" y1="448.275" x2="241.974" y2="521.466"/>
<line fill="none" stroke="#FFFFFF" stroke-width="10" stroke-miterlimit="10" x1="463.504" y1="448.275" x2="329.013" y2="522.023"/>
<line fill="none" stroke="#FFFFFF" stroke-width="15" stroke-miterlimit="10" x1="416.334" y1="325.667" x2="475" y2="325.667"/>
<line fill="none" stroke="#FFFFFF" stroke-width="15" stroke-miterlimit="10" x1="96.667" y1="325.667" x2="146.667" y2="325.667"/>
<line fill="none" stroke="#FFFFFF" stroke-width="15" stroke-miterlimit="10" x1="417.667" y1="423.667" x2="474.334" y2="423.667"/>
<line fill="none" stroke="#FFFFFF" stroke-width="15" stroke-miterlimit="10" x1="97" y1="423.667" x2="145" y2="423.667"/>
<g>
	<line fill="none" stroke="#FFFFFF" stroke-width="15" stroke-miterlimit="10" x1="16.333" y1="325.667" x2="63" y2="325.667"/>
	<line fill="none" stroke="#FFFFFF" stroke-width="15" stroke-miterlimit="10" x1="16.333" y1="423.667" x2="63.667" y2="423.667"/>
</g>
<line fill="none" stroke="#FFFFFF" stroke-width="6" stroke-miterlimit="10" x1="237.361" y1="524.002" x2="286.079" y2="491.197"/>
<line fill="none" stroke="#FFFFFF" stroke-width="6" stroke-miterlimit="10" x1="331.337" y1="523.2" x2="285" y2="492"/>
<line fill="none" stroke="#FFFFFF" stroke-width="10" stroke-miterlimit="10" x1="241.974" y1="555.545" x2="288.383" y2="521.466"/>
<line fill="none" stroke="#FFFFFF" stroke-width="10" stroke-miterlimit="10" x1="329.013" y1="555.545" x2="283.5" y2="522.023"/>
<g>
	<line fill="none" stroke="#FFFFFF" stroke-width="15" stroke-miterlimit="10" x1="513" y1="325.667" x2="559.667" y2="325.667"/>
	<line fill="none" stroke="#FFFFFF" stroke-width="15" stroke-miterlimit="10" x1="513" y1="423.667" x2="560.334" y2="423.667"/>
</g>
<g>
	<polyline fill="none" stroke="#FFFFFF" stroke-width="6" stroke-miterlimit="10" points="259.72,286.004 286,259.724 
		312.279,286.003 	"/>
	<polyline fill="none" stroke="#FFFFFF" stroke-width="6" stroke-miterlimit="10" points="265.72,300.784 286.5,280.004 
		307.279,300.783 	"/>
</g>
<text transform="matrix(1 0 0 1 92 413.667)" fill="#27AAE1" font-family="'Bahnschrift'" font-size="101.7732">GAMING</text>
</svg>
