<svg xmlns="http://www.w3.org/2000/svg" xmlns:xlink="http://www.w3.org/1999/xlink" viewBox="0 0 44 48.022"><defs><style>.a{fill:none;stroke:#fff;stroke-miterlimit:10;stroke-width:2px;}.b{fill:#fff;}.c{filter:url(#a);}</style><filter id="a" x="0" y="0" width="44" height="48.022" filterUnits="userSpaceOnUse"><feOffset input="SourceAlpha"/><feGaussianBlur stdDeviation="3" result="b"/><feFlood flood-color="#fff" flood-opacity="0.161"/><feComposite operator="in" in2="b"/><feComposite in="SourceGraphic"/></filter></defs><g transform="translate(-90.901 -428.845)"><g class="c" transform="matrix(1, 0, 0, 1, 90.9, 428.85)"><path class="a" d="M174.672,146.436v13.853l12,6.93,12-6.93V146.436l-12-6.93Z" transform="translate(-164.67 -129.35)"/></g><path class="b" d="M-103.026-435.035a4.419,4.419,0,0,1-1.456-.279,2.954,2.954,0,0,1-1.061-.692,2.946,2.946,0,0,1-.694-1.064,4.359,4.359,0,0,1-.279-1.456c-.029-.64-.035-.843-.035-2.473s.006-1.832.037-2.475a4.4,4.4,0,0,1,.279-1.456,2.965,2.965,0,0,1,.692-1.062,2.934,2.934,0,0,1,1.064-.694,4.405,4.405,0,0,1,1.456-.279c.64-.028.843-.035,2.472-.035s1.833.007,2.476.038a4.4,4.4,0,0,1,1.456.279,2.963,2.963,0,0,1,1.061.691,2.936,2.936,0,0,1,.695,1.065,4.383,4.383,0,0,1,.278,1.455c.029.641.031.844.031,2.473s-.007,1.833-.035,2.473a4.4,4.4,0,0,1-.279,1.456,3.07,3.07,0,0,1-1.756,1.756,4.4,4.4,0,0,1-1.455.279c-.64.028-.844.035-2.473.035S-102.386-435.007-103.026-435.035Zm.057-10.84a3.3,3.3,0,0,0-1.114.206,1.867,1.867,0,0,0-.688.447,1.832,1.832,0,0,0-.451.689,3.3,3.3,0,0,0-.206,1.113c-.028.631-.035.823-.035,2.425s.007,1.791.035,2.424a3.315,3.315,0,0,0,.206,1.113,1.873,1.873,0,0,0,.448.689,1.838,1.838,0,0,0,.689.447,3.253,3.253,0,0,0,1.113.206c.631.029.823.036,2.424.036s1.791-.007,2.424-.036a3.275,3.275,0,0,0,1.114-.206,1.991,1.991,0,0,0,1.138-1.139,3.269,3.269,0,0,0,.207-1.113c.028-.633.035-.82.035-2.421s-.007-1.791-.035-2.425a3.29,3.29,0,0,0-.207-1.113,1.867,1.867,0,0,0-.447-.689,1.856,1.856,0,0,0-.689-.447,3.276,3.276,0,0,0-1.113-.206c-.631-.029-.821-.035-2.424-.035S-102.336-445.9-102.969-445.874Zm-.664,4.875a3.084,3.084,0,0,1,3.083-3.082A3.083,3.083,0,0,1-97.467-441a3.084,3.084,0,0,1-3.083,3.083A3.085,3.085,0,0,1-103.633-441Zm1.084,0a2,2,0,0,0,2,2,2,2,0,0,0,2-2,2,2,0,0,0-2-2A2,2,0,0,0-102.55-441Zm4.484-3.2a.72.72,0,0,1,.72-.72.72.72,0,0,1,.72.72.72.72,0,0,1-.72.719A.72.72,0,0,1-98.066-444.2Z" transform="translate(213.551 894)"/></g></svg>