<svg xmlns="http://www.w3.org/2000/svg" viewBox="0 0 480 480"><defs><style>.cls-1,.cls-2,.cls-4,.cls-6,.cls-7,.cls-8{fill:none;}.cls-2,.cls-4,.cls-6,.cls-7,.cls-8{stroke:#fff;}.cls-2,.cls-4{stroke-miterlimit:10;}.cls-2{stroke-width:2px;}.cls-3,.cls-5{fill:#fff;}.cls-3{opacity:0;}.cls-4{stroke-width:4px;}.cls-6,.cls-7{stroke-width:3px;}.cls-7{stroke-linecap:round;stroke-linejoin:round;}.cls-8{stroke-width:6px;}</style></defs><title>holo-hud</title><g id="Layer_2" data-name="Layer 2"><g id="holo"><rect class="cls-1" width="480" height="480"/><polygon class="cls-2" points="207.5 221.03 207.5 257.98 239.5 276.45 271.5 257.98 271.5 221.03 239.5 202.55 207.5 221.03"/><g id="sponsors"><rect class="cls-3" x="69" y="128.5" width="64" height="64"/><polygon class="cls-4" points="76.75 146.5 76.75 174.5 101 188.5 125.25 174.5 125.25 146.5 101 132.5 76.75 146.5"/><path class="cls-5" d="M34.51,191.15a11.44,11.44,0,0,1-.19,4.42L34,197.1s-.2.44-.59,1.33A11.82,11.82,0,0,1,32,200.87,10.38,10.38,0,0,1,30,202.81l-2.37-2.44A8.85,8.85,0,0,0,29.81,198a9.94,9.94,0,0,0,1.22-3.1,6.18,6.18,0,0,0-.05-3.45,2.45,2.45,0,0,0-1.88-1.62h0a2.29,2.29,0,0,0-1.66.19,3.17,3.17,0,0,0-1.13,1.19,18.52,18.52,0,0,0-1,2.05.32.32,0,0,0,0,.09l0,.08-.1.25a22.1,22.1,0,0,1-1.58,3.31,5.08,5.08,0,0,1-2.21,1.95,5.78,5.78,0,0,1-3.71.21h0a6.36,6.36,0,0,1-3.23-1.63,5.69,5.69,0,0,1-1.6-3.08,11.51,11.51,0,0,1,.88-6.5,12.77,12.77,0,0,1,1.22-2.07,13.31,13.31,0,0,1,1.67-1.87l2.5,2.3a10.45,10.45,0,0,0-1.85,2.2,7.32,7.32,0,0,0-1,2.37,5.65,5.65,0,0,0,.06,3.25,2.41,2.41,0,0,0,1.84,1.54h0a2.19,2.19,0,0,0,1.7-.23A3.36,3.36,0,0,0,21,194.15a24.81,24.81,0,0,0,1.08-2.25l.05-.11a.69.69,0,0,1,0-.1,1,1,0,0,1,.07-.15l.06-.16A17.48,17.48,0,0,1,24,188.31a5.21,5.21,0,0,1,2.24-1.81,5.64,5.64,0,0,1,3.51-.18h0A6.16,6.16,0,0,1,33,188,6,6,0,0,1,34.51,191.15Zm-4.72-12.82,8,2.48-1,3.39-20.62-6.38.66-2.14,1.85-6a7.11,7.11,0,0,1,1.81-3.07,5.81,5.81,0,0,1,2.91-1.54,7,7,0,0,1,3.57.23A6.94,6.94,0,0,1,30,167.13,5.7,5.7,0,0,1,31.5,170a7.09,7.09,0,0,1-.25,3.56Zm-9.38-2.89,6.13,1.89,1.5-4.84a2.85,2.85,0,0,0,.07-1.55,2.79,2.79,0,0,0-.78-1.3,3.79,3.79,0,0,0-1.49-.84,3.86,3.86,0,0,0-1.72-.16,2.59,2.59,0,0,0-1.38.63,2.8,2.8,0,0,0-.83,1.33Zm25.46-19.35a8.82,8.82,0,0,1-3.07,7.51,6.85,6.85,0,0,1-3.62,1.45,8.73,8.73,0,0,1-4.23-.69l-5.66-2.31a8.78,8.78,0,0,1-3.5-2.48A6.86,6.86,0,0,1,24.23,156a8.89,8.89,0,0,1,3.07-7.51A6.88,6.88,0,0,1,30.92,147a8.71,8.71,0,0,1,4.23.69L40.81,150a8.71,8.71,0,0,1,3.5,2.48A6.86,6.86,0,0,1,45.87,156.09Zm-3.56.61a3.71,3.71,0,0,0-.87-1.91,5,5,0,0,0-1.92-1.33l-5.85-2.39a4.92,4.92,0,0,0-2.3-.4,3.55,3.55,0,0,0-1.95.75,4.21,4.21,0,0,0-1.31,1.78,4.28,4.28,0,0,0-.32,2.19,3.64,3.64,0,0,0,.87,1.9,4.87,4.87,0,0,0,1.92,1.34L36.43,161a4.94,4.94,0,0,0,2.3.4,3.55,3.55,0,0,0,2-.75A4.21,4.21,0,0,0,42,158.89,4.28,4.28,0,0,0,42.31,156.7Zm-5.79-28.82,14.15,7.42-18.3.49-1.79,3.42,19.1,10,1.6-3-13.93-7.31,18.07-.58,1.81-3.44-19.11-10Zm25.9-12.67h0a5.73,5.73,0,0,0-3.35-1.09,5.35,5.35,0,0,0-2.74.9,17.37,17.37,0,0,0-2.63,2.29,1.36,1.36,0,0,0-.12.12l-.11.12-.08.08a.3.3,0,0,1-.08.08,22.81,22.81,0,0,1-1.81,1.72,3.39,3.39,0,0,1-1.52.75,2.26,2.26,0,0,1-1.67-.4h0a2.38,2.38,0,0,1-1.17-2.09,5.67,5.67,0,0,1,1.1-3.07A7.47,7.47,0,0,1,50,112.74a10.19,10.19,0,0,1,2.52-1.4l-1.52-3a12.94,12.94,0,0,0-2.22,1.16,11.57,11.57,0,0,0-1.88,1.5,11.56,11.56,0,0,0-3.14,5.76,5.79,5.79,0,0,0,.4,3.45,6.52,6.52,0,0,0,2.44,2.68h0A5.71,5.71,0,0,0,50.11,124a5.13,5.13,0,0,0,2.77-1,20.53,20.53,0,0,0,2.64-2.53l.18-.2.07-.06a.13.13,0,0,1,.06-.07,17.61,17.61,0,0,1,1.63-1.58,3.16,3.16,0,0,1,1.48-.7,2.25,2.25,0,0,1,1.62.41h0a2.45,2.45,0,0,1,1.18,2.19,6.12,6.12,0,0,1-1.18,3.24,10,10,0,0,1-2.24,2.47,8.86,8.86,0,0,1-2.86,1.48l1.36,3.12a10.43,10.43,0,0,0,2.48-1.13,12.11,12.11,0,0,0,2.21-1.76l1-1,.85-1.31a11.37,11.37,0,0,0,1.75-4.07,6,6,0,0,0-.34-3.51A6.21,6.21,0,0,0,62.42,115.21Zm13.11-12.78a6.86,6.86,0,0,1,.53,3.86,8.85,8.85,0,0,1-5,6.39,6.73,6.73,0,0,1-3.87.42,8.62,8.62,0,0,1-3.89-1.81l-4.82-3.77a8.63,8.63,0,0,1-2.7-3.33,6.85,6.85,0,0,1-.53-3.86,8.85,8.85,0,0,1,5-6.39,6.91,6.91,0,0,1,3.87-.42A8.73,8.73,0,0,1,68,95.33l4.82,3.77A8.63,8.63,0,0,1,75.53,102.43Zm-3.38,1.41a5,5,0,0,0-1.48-1.8l-5-3.89a5,5,0,0,0-2.1-1,3.71,3.71,0,0,0-2.09.19,4.26,4.26,0,0,0-1.74,1.37,4.21,4.21,0,0,0-.9,2,3.61,3.61,0,0,0,.32,2.06,5,5,0,0,0,1.48,1.8l5,3.9a4.92,4.92,0,0,0,2.11,1,3.59,3.59,0,0,0,2.08-.19,4.57,4.57,0,0,0,2.64-3.38A3.63,3.63,0,0,0,72.15,103.84ZM82.47,86.45,92.63,89l-2.92,3.11L80,89.49,77.59,92l6.49,6.11-2.44,2.58L65.91,85.91l2.43-2.58h0l3.75-4a6.41,6.41,0,0,1,2.77-1.8,5.41,5.41,0,0,1,3.09,0,7.63,7.63,0,0,1,4.86,4.57A5.35,5.35,0,0,1,83,85.18,5.43,5.43,0,0,1,82.47,86.45Zm-3.68-.65a2.37,2.37,0,0,0,.49-2.56,3.93,3.93,0,0,0-.92-1.31A3.68,3.68,0,0,0,77,81.1a2.35,2.35,0,0,0-2.54.66l-3.67,3.9,4.29,4Zm24.79-10.18A6.05,6.05,0,0,0,102,72.4l0,0A5.65,5.65,0,0,0,99,70.43a5.3,5.3,0,0,0-2.88.14A17.46,17.46,0,0,0,93,72.07l-.14.08-.14.09-.1.06a.31.31,0,0,1-.1,0,23.89,23.89,0,0,1-2.2,1.18,3.53,3.53,0,0,1-1.66.31A2.21,2.21,0,0,1,87.16,73h0a2.41,2.41,0,0,1-.57-2.33A5.73,5.73,0,0,1,88.46,68a7.25,7.25,0,0,1,2.19-1.33,10.54,10.54,0,0,1,2.8-.68l-.65-3.33a12.83,12.83,0,0,0-2.45.52,12.16,12.16,0,0,0-2.22,1,10.78,10.78,0,0,0-1.91,1.35,10.61,10.61,0,0,0-2.65,3.36A5.72,5.72,0,0,0,83,72.28a6.42,6.42,0,0,0,1.63,3.23h0a5.74,5.74,0,0,0,3.11,2,5.11,5.11,0,0,0,2.94-.26A22.75,22.75,0,0,0,94,75.55l.23-.14a.18.18,0,0,0,.07,0l.08,0a19.29,19.29,0,0,1,2-1.08A3.15,3.15,0,0,1,98,74a2.21,2.21,0,0,1,1.45.83h0a2.44,2.44,0,0,1,.55,2.42A6.12,6.12,0,0,1,98,80a10.07,10.07,0,0,1-2.82,1.78,8.75,8.75,0,0,1-3.15.66l.47,3.37a10.4,10.4,0,0,0,2.69-.42,12,12,0,0,0,2.6-1.11L99,83.58l1.17-1A11.32,11.32,0,0,0,103,79.09,5.88,5.88,0,0,0,103.58,75.62Z"/><polyline class="cls-2" points="156.5 143.5 156.5 155.5 175.5 166.03 175.5 182.59"/><polyline class="cls-2" points="143.5 221.03 105 199.5 45 199.5"/><polygon class="cls-2" points="143.5 221.03 143.5 257.98 175.5 276.45 207.5 257.98 207.5 221.03 175.5 202.55 143.5 221.03"/><polyline class="cls-6" points="109.8 160 109.8 171 92.2 171 92.2 160"/><rect class="cls-6" x="90" y="154.5" width="22" height="5.5"/><line class="cls-7" x1="101" y1="171" x2="101" y2="154.5"/><path class="cls-7" d="M101,154.5h-5a2.75,2.75,0,0,1,0-5.5C99.9,149,101,154.5,101,154.5Z"/><path class="cls-7" d="M101,154.5h5a2.75,2.75,0,0,0,0-5.5C102.1,149,101,154.5,101,154.5Z"/><polygon class="cls-3" points="35 213 115 74 94 48 24 118 6 201 35 213"/></g><g id="events"><rect class="cls-3" x="346" y="128.5" width="64" height="64"/><polygon class="cls-4" points="353.75 146.5 353.75 174.5 378 188.5 402.25 174.5 402.25 146.5 378 132.5 353.75 146.5"/><path class="cls-5" d="M395,93.28l7.15,7.85-2.51,2.29-7.16-7.85h0L391,94h0l-1-1.09L406,78.4l1,1.09h0l.76.83.64.71h0l7.16,7.84L413,91.16l-7.16-7.84-4.27,3.89,6.06,6.64-2.5,2.28-6.06-6.64Zm30.9,8.71-15.4,5.68,9.44-13.42-2.28-3-12.78,18.8,1.85,2.4L428.14,105Zm-3,28.2-5.75-8.92,4.74-3,4.86,7.55,2.85-1.83-4.87-7.55,4.86-3.13,5.74,8.93,2.86-1.84-5.74-8.93h0l-1.93-3-18.15,11.69,1.93,3h0L420,132Zm24,6.22-14.15,7.4,10-15.32-1.79-3.42-19.12,10,1.6,3.05,13.94-7.29L427.54,146l1.8,3.45,19.12-10Zm6,21.8,3.13-1.32-6-14.31-3.14,1.32,2.33,5.53-16.75,7.07,1.37,3.25,16.76-7.06Zm7.36,11.18a11.41,11.41,0,0,0-.49-2.28,10.49,10.49,0,0,0-2.05-3.76,5.81,5.81,0,0,0-2.94-1.84,6.41,6.41,0,0,0-3.62.23h0a5.64,5.64,0,0,0-3.09,2.06,5.07,5.07,0,0,0-.91,2.8,21.18,21.18,0,0,0,.32,3.65l0,.27a.29.29,0,0,0,0,.09.28.28,0,0,1,0,.09,15.24,15.24,0,0,1,.21,2.26,3.23,3.23,0,0,1-.37,1.6,2.29,2.29,0,0,1-1.33,1h0a2.48,2.48,0,0,1-2.45-.45,6.16,6.16,0,0,1-1.79-2.95,9.89,9.89,0,0,1-.53-3.29,9,9,0,0,1,.63-3.16l-3.28-.89a10.24,10.24,0,0,0-.67,2.64,12.26,12.26,0,0,0,0,2.84c.1,1,.16,1.45.16,1.45l.49,1.48a11.39,11.39,0,0,0,2.09,3.9,5.86,5.86,0,0,0,2.95,1.93,6.07,6.07,0,0,0,3.58-.19h0A5.64,5.64,0,0,0,450.1,177a5.24,5.24,0,0,0,1-2.71,17.92,17.92,0,0,0-.14-3.48l0-.16a.88.88,0,0,0,0-.17s0-.08,0-.11,0-.07,0-.11a24.76,24.76,0,0,1-.21-2.49,3.45,3.45,0,0,1,.37-1.65A2.22,2.22,0,0,1,452.4,165h0a2.4,2.4,0,0,1,2.36.39,5.68,5.68,0,0,1,1.71,2.77,7.47,7.47,0,0,1,.36,2.54,10.43,10.43,0,0,1-.48,2.84l3.32.71a12.76,12.76,0,0,0,.49-2.46A12.13,12.13,0,0,0,460.18,169.39Z"/><polyline class="cls-2" points="322.5 143.5 322.5 155.5 303.5 166.03 303.5 182.59"/><polyline class="cls-2" points="335.5 221.03 374 199.5 434 199.5"/><polygon class="cls-2" points="271.5 221.03 271.5 257.98 303.5 276.45 335.5 257.98 335.5 221.03 303.5 202.55 271.5 221.03"/><rect class="cls-6" x="368" y="155" width="20" height="15"/><polyline class="cls-6" points="383 149 378 154 373 149"/><polygon class="cls-3" points="380 93 404 69 448 117 467 175 441 186 380 93"/></g><g id="team"><rect class="cls-3" x="346" y="287.5" width="64" height="64"/><polygon class="cls-4" points="353.75 305.5 353.75 333.5 378 347.5 402.25 333.5 402.25 305.5 378 291.5 353.75 305.5"/><path class="cls-5" d="M406.82,372.41l15.76,12.73-2.47,3.06-15.77-12.73-4.2,5.2-2.94-2.38,10.87-13.46,2.94,2.38Zm21.12-.76-5.19-3.52,5.62-8.28-3.12-2.12L419.63,366l-5.33-3.61,6.64-9.79-3.13-2.13-7.94,11.71h0l-.92,1.35,19.9,13.51.92-1.36h0l7.94-11.7-3.13-2.13ZM424.28,339l25.43,3.65-2,3.73-4.76-.81-4.46,8.13,3.24,3.59L439.63,361l-16.74-19.48Zm4.68,4.22,6.79,7.51,3.19-5.82ZM459.78,319l-22.23-9.19L435.81,314l12.6,11.52-17.05-.76L429.61,329l22.23,9.2,1.41-3.43L438,328.48l14.43.45,1.21-2.93L442.8,316l15.56,6.43Z"/><polyline class="cls-2" points="322.5 323.02 303.5 312.5 303.5 289.5"/><polyline class="cls-2" points="335.5 257.98 374 279.5 434 279.5"/><path class="cls-5" d="M377,311.94v4.21h-4.2v-4.21H377m3-3h-10.2v10.21H380V308.94Z"/><path class="cls-6" d="M390.69,330.26v-7.33h-4.28"/><path class="cls-6" d="M383.08,309.82h3.85l0,8.47h-3.87"/><path class="cls-6" d="M383.08,330.26v-7.47H366.69v7.47"/><polygon class="cls-3" points="385 384 416 406 460 365 472 313 432 297 385 384"/></g><g id="register"><rect class="cls-3" x="208" y="368" width="64" height="64"/><polygon class="cls-4" points="215.75 386 215.75 414 240 428 264.25 414 264.25 386 240 372 215.75 386"/><path class="cls-5" d="M184.92,439.15a7.08,7.08,0,0,0-3.18-1.85l-5.84-1.73h0l-.58-.17-1.64-.48h0l-1.57-.46-6.81,23.08,3.79,1.12,2.81-9.52,3.73,1.1,2.25,11,4.55,1.34-2.53-11.41a6.29,6.29,0,0,0,1.51-.15,6.12,6.12,0,0,0,3-1.7,8.52,8.52,0,0,0,2.1-7.13A6,6,0,0,0,184.92,439.15Zm-2.59,5.68a4.27,4.27,0,0,1-.84,1.57,2.62,2.62,0,0,1-2.79.8L173,445.51l1.86-6.3,5.73,1.69a2.68,2.68,0,0,1,1.3.81,2.58,2.58,0,0,1,.62,1.38A4.07,4.07,0,0,1,182.33,444.83Zm11.76-4.32L208,443.17l-.72,3.72-11.61-2.23L194.44,451l9.82,1.89-.71,3.7-9.83-1.89-1.18,6.16,11.62,2.23-.72,3.72-13.89-2.66h0l-1.6-.3,4.53-23.62,1.61.31Zm19.53,19.24a4.72,4.72,0,0,0,.34,2.4,3.9,3.9,0,0,0,1.47,1.72,5.2,5.2,0,0,0,2.36.78,4.84,4.84,0,0,0,2.43-.36,4,4,0,0,0,1.73-1.55,6,6,0,0,0,.8-2.6l.07-.72-4.25-.4.35-3.77,8.3.78-.41,4.43a10,10,0,0,1-1.51,4.6,7.67,7.67,0,0,1-3.29,2.87,9,9,0,0,1-4.59.69,9.51,9.51,0,0,1-4.43-1.47,7.48,7.48,0,0,1-2.76-3.24,9,9,0,0,1-.67-4.53l.67-7.07a9.83,9.83,0,0,1,1.5-4.59,7.58,7.58,0,0,1,3.29-2.86,8.88,8.88,0,0,1,4.59-.69,8.59,8.59,0,0,1,3.79,1.24,8.13,8.13,0,0,1,2.73,2.77,9.35,9.35,0,0,1,1.26,3.89l-4.25-.39a4.22,4.22,0,0,0-.75-1.79,4.63,4.63,0,0,0-5.57-1.36,4.12,4.12,0,0,0-1.74,1.6,5.85,5.85,0,0,0-.8,2.56Zm18.92-14.51,4,.09L236,469.38l-4-.1Zm26,16.62v0a6.88,6.88,0,0,1-.89,3.9,6.52,6.52,0,0,1-3,2.57,12.75,12.75,0,0,1-4.82,1.06l-1.74.07-1.61-.27a13.06,13.06,0,0,1-3-.86,11.79,11.79,0,0,1-2.63-1.52l2-3.25a9.74,9.74,0,0,0,3.19,1.63,10.75,10.75,0,0,0,3.69.44,6.87,6.87,0,0,0,3.7-1,2.74,2.74,0,0,0,1.22-2.49v0a2.47,2.47,0,0,0-.67-1.73,3.44,3.44,0,0,0-1.6-.89,18,18,0,0,0-2.48-.46h-.1l-.1,0-.3,0a23.45,23.45,0,0,1-4-.77,5.62,5.62,0,0,1-2.73-1.83,6.36,6.36,0,0,1-1.27-3.93v0a7.07,7.07,0,0,1,.85-3.94,6.42,6.42,0,0,1,2.86-2.6,11.82,11.82,0,0,1,4.66-1,12.05,12.05,0,0,1,2.6.17,13.86,13.86,0,0,1,5.06,2l-1.77,3.35a11.54,11.54,0,0,0-2.89-1.38,8.37,8.37,0,0,0-2.83-.39,6.35,6.35,0,0,0-3.49,1,2.7,2.7,0,0,0-1.15,2.41v0a2.49,2.49,0,0,0,.73,1.77,3.9,3.9,0,0,0,1.65.9c.66.17,1.57.35,2.73.53l.13,0,.12,0,.19,0,.18,0a19.93,19.93,0,0,1,3.77.9,5.87,5.87,0,0,1,2.6,1.91A6.4,6.4,0,0,1,258.56,461.86Zm17.24-15.62-6.63.86,2.6,20.09-3.9.51-2.6-20.1-6.63.86-.49-3.76,17.16-2.22Zm20.72,12.41.8,3.7-13.82,3h0l-1.61.35-5.06-23.51,1.6-.35h0l13.82-3,.8,3.7L281.49,445l1.35,6.29,9.79-2.11.79,3.68L283.64,455l1.32,6.13Zm19-1.83,4.52-1.45-8.5-8a6.35,6.35,0,0,0,1.15-1,6,6,0,0,0,1.53-3.09,8.51,8.51,0,0,0-2.26-7.08,6.09,6.09,0,0,0-3-1.63,7.06,7.06,0,0,0-3.67.25l-8,2.56h0l-1.56.5L303,460.81l3.76-1.2-3-9.45,3.7-1.19Zm-14.91-16.53,5.69-1.82a2.62,2.62,0,0,1,2.82.73,4.17,4.17,0,0,1,.86,1.54,4.22,4.22,0,0,1,.18,1.76,2.64,2.64,0,0,1-.59,1.4,2.69,2.69,0,0,1-1.27.83l-5.68,1.82Z"/><polygon class="cls-2" points="175.5 276.02 175.5 312.98 207.5 331.45 239.5 312.98 239.5 276.02 207.5 257.55 175.5 276.02"/><polygon class="cls-2" points="239.5 276.02 239.5 312.98 271.5 331.45 303.5 312.98 303.5 276.02 271.5 257.55 239.5 276.02"/><line class="cls-2" x1="207.5" y1="331.5" x2="207.5" y2="391.5"/><line class="cls-2" x1="271.5" y1="331.5" x2="271.5" y2="391.5"/><polygon class="cls-6" points="242.2 389 246.6 393.4 234.5 405.5 230.1 405.5 230.1 401.1 242.2 389"/><line class="cls-6" x1="229" y1="411" x2="251" y2="411"/><polygon class="cls-3" points="160 432 319 432 331 470 243 480 153 471 160 432"/></g><g id="reach"><rect class="cls-3" x="69" y="287.5" width="64" height="64"/><polygon class="cls-4" points="76.75 305.5 76.75 333.5 101 347.5 125.25 333.5 125.25 305.5 101 291.5 76.75 305.5"/><path class="cls-5" d="M30.62,318.18a6.12,6.12,0,0,0,3.13,1.45,8.52,8.52,0,0,0,7-2.46,6.07,6.07,0,0,0,1.55-3.08,7.09,7.09,0,0,0-.35-3.66l-2.78-7.93h0L38.63,301l-22.71,8,1.31,3.73,9.37-3.28L27.88,313l-7.62,8.27,1.58,4.48,7.78-8.72A5.94,5.94,0,0,0,30.62,318.18Zm5.75-12.24,2,5.63a2.64,2.64,0,0,1,.11,1.54,2.6,2.6,0,0,1-.76,1.3,3.83,3.83,0,0,1-1.51.9,4.1,4.1,0,0,1-1.76.23A2.58,2.58,0,0,1,33,315a2.65,2.65,0,0,1-.86-1.24l-2-5.64ZM30.7,345.28l-5-10.73h0L24.06,331l21.82-10.11,1.23,2.65,5.41,11.67-3.44,1.59-5-10.73-5.84,2.7,4.21,9.08-3.42,1.59-4.21-9.08L29.16,333l5,10.74Zm26.82-1.22-25.27,4.61,2.18,3.65,4.73-1,4.76,8-3.1,3.7L43,366.64l16-20.11Zm-11,12.15-3.41-5.69,9.9-2.07ZM60.92,379a10.78,10.78,0,0,1-4.29,1.1,7.84,7.84,0,0,1-3.88-.82,8.28,8.28,0,0,1-3-2.63c-1-1.42-1.52-2.12-1.52-2.12s-.08-.74-.25-2.2a7.33,7.33,0,0,1,.79-4.22A10.39,10.39,0,0,1,52,364.53l5.36-3.86a10.48,10.48,0,0,1,4.49-1.95,7.44,7.44,0,0,1,4.25.59,9.15,9.15,0,0,1,3.54,3.05,8.46,8.46,0,0,1,1.54,3.73,8,8,0,0,1-.46,3.94,10.83,10.83,0,0,1-2.42,3.71l-2.38-3.31a5.78,5.78,0,0,0,1.1-1.95,4.53,4.53,0,0,0,.19-2,4.14,4.14,0,0,0-.74-1.82,4.49,4.49,0,0,0-1.89-1.56,4.08,4.08,0,0,0-2.33-.23A6.14,6.14,0,0,0,59.75,364l-5.36,3.85a6.1,6.1,0,0,0-1.87,2,4,4,0,0,0-.52,2.28,4.42,4.42,0,0,0,.88,2.28,4.21,4.21,0,0,0,1.49,1.3,4.26,4.26,0,0,0,2,.48,5.31,5.31,0,0,0,2.22-.45Zm27.17,6.11-18,15.92-2.62-3,7.49-6.61-6.26-7.09L61.18,391l-2.62-3,18-15.93,2.62,3-7.7,6.8L77.77,389l7.7-6.8Z"/><polyline class="cls-2" points="156.5 323.02 175.5 312.5 175.5 289.5"/><polyline class="cls-2" points="143.5 257.98 105 279.5 45 279.5"/><path class="cls-6" d="M106.5,307.87l5.5,9.93-11,14.3L90,317.8l5.5-9.93Z"/><rect class="cls-6" x="97.7" y="313.4" width="6.6" height="6.6"/><polygon class="cls-3" points="6 307 42 292 97 387 71 411 24 369 6 307"/></g><g id="about"><rect class="cls-3" x="208" y="48" width="64" height="64"/><polygon class="cls-4" points="215.75 66 215.75 94 240 108 264.25 94 264.25 66 240 52 215.75 66"/><path class="cls-5" d="M196.81,15.84l-4.14,22.68,3.76-.67.67-4.29,8.19-1.48,2.13,3.78,3.75-.68-11.81-19.8ZM197.66,30l1.4-9,4.46,7.91Zm30.83-2.3a5.63,5.63,0,0,0-.73-2.39,4.77,4.77,0,0,0-1.65-1.66,5.26,5.26,0,0,0-2.42-.69,5.32,5.32,0,0,0,2.15-1.08,4.15,4.15,0,0,0,1.23-1.74,4.8,4.8,0,0,0,.28-2.19,6.32,6.32,0,0,0-1-3.06A4.84,4.84,0,0,0,224,13.08a7.86,7.86,0,0,0-3.59-.39l-6.07.53-2.56.22L213.67,35l3.52-.31h0l5.35-.47a8,8,0,0,0,3.39-1A5.2,5.2,0,0,0,228,30.93a6,6,0,0,0,.5-3.18Zm-5.68-11.16a2.49,2.49,0,0,1,1,1.94,2.72,2.72,0,0,1-.59,2.13,3.21,3.21,0,0,1-2.17.9l-5,.44-.48-5.48,4.76-.41A3.59,3.59,0,0,1,222.81,16.54Zm1.37,13.33a4.18,4.18,0,0,1-2.69,1l-4.6.41-.52-6,5-.43a4,4,0,0,1,1.86.2,2.39,2.39,0,0,1,1.19.94,3.68,3.68,0,0,1,.5,1.61v.05A2.72,2.72,0,0,1,224.18,29.87ZM244.4,12.75a8.14,8.14,0,0,0-4-1.06,8.28,8.28,0,0,0-4.07.92,7,7,0,0,0-2.76,2.75,8.8,8.8,0,0,0-1,4.16l-.1,6.12a8.7,8.7,0,0,0,.9,4.19A6.78,6.78,0,0,0,236,32.67a8.84,8.84,0,0,0,8.11.13,6.89,6.89,0,0,0,2.76-2.75,8.77,8.77,0,0,0,1-4.16l.1-6.11a8.61,8.61,0,0,0-.9-4.2A6.75,6.75,0,0,0,244.4,12.75Zm-.18,13.19a5,5,0,0,1-.55,2.27,3.62,3.62,0,0,1-1.45,1.5,4.64,4.64,0,0,1-4.29-.07,3.59,3.59,0,0,1-1.41-1.55,4.94,4.94,0,0,1-.47-2.29l.1-6.32a5,5,0,0,1,.55-2.27,3.62,3.62,0,0,1,1.45-1.5,4.26,4.26,0,0,1,2.16-.5,4.13,4.13,0,0,1,2.13.57,3.53,3.53,0,0,1,1.41,1.55,4.9,4.9,0,0,1,.47,2.28Zm21.32-12.62,3.53.33-1.28,13.72a9.51,9.51,0,0,1-1.32,4.24,6.29,6.29,0,0,1-2.89,2.49,8.67,8.67,0,0,1-4.26.55,8.79,8.79,0,0,1-4.07-1.33,6.29,6.29,0,0,1-2.37-3,9.57,9.57,0,0,1-.5-4.41l1.29-13.72,3.53.33-1.29,13.82a4.61,4.61,0,0,0,.78,3.36,4.69,4.69,0,0,0,6.15.57,4.51,4.51,0,0,0,1.4-3.14Zm21.32,6.78-5.91-1L277.81,37l-3.48-.61,3.14-17.92-5.91-1,.59-3.35,15.3,2.68Z"/><polygon class="cls-2" points="175.5 166.03 175.5 202.97 207.5 221.45 239.5 202.97 239.5 166.03 207.5 147.55 175.5 166.03"/><polygon class="cls-2" points="239.5 166.03 239.5 202.97 271.5 221.45 303.5 202.97 303.5 166.03 271.5 147.55 239.5 166.03"/><line class="cls-2" x1="207.5" y1="147.5" x2="207.5" y2="117.5"/><line class="cls-2" x1="271.5" y1="147.5" x2="271.5" y2="117.5"/><line class="cls-8" x1="240" y1="68" x2="240" y2="74"/><line class="cls-8" x1="240" y1="77" x2="240" y2="93"/><polygon class="cls-3" points="185 52 290 52 300 9 241 0 176 10 185 52"/></g></g></g></svg>