<svg xmlns="http://www.w3.org/2000/svg" xmlns:xlink="http://www.w3.org/1999/xlink" viewBox="0 0 44 48.022"><defs><style>.a{fill:none;stroke:#fff;stroke-miterlimit:10;stroke-width:2px;}.b{fill:#fff;}.c{filter:url(#a);}</style><filter id="a" x="0" y="0" width="44" height="48.022" filterUnits="userSpaceOnUse"><feOffset input="SourceAlpha"/><feGaussianBlur stdDeviation="3" result="b"/><feFlood flood-color="#fff" flood-opacity="0.161"/><feComposite operator="in" in2="b"/><feComposite in="SourceGraphic"/></filter></defs><g transform="translate(-90.901 -388.845)"><g class="c" transform="matrix(1, 0, 0, 1, 90.9, 388.85)"><path class="a" d="M174.672,146.436v13.853l12,6.93,12-6.93V146.436l-12-6.93Z" transform="translate(-164.67 -129.35)"/></g><path class="b" d="M13,3a5.945,5.945,0,0,1-1.713.835A2.444,2.444,0,0,0,7,5.466v.545A5.815,5.815,0,0,1,2.091,3.541S-.091,8.45,4.818,10.632A6.349,6.349,0,0,1,1,11.723c4.909,2.727,10.909,0,10.909-6.273A2.454,2.454,0,0,0,11.865,5,4.211,4.211,0,0,0,13,3Z" transform="translate(106.5 404.51)"/></g></svg>