<?xml version="1.0" encoding="utf-8"?>
<!-- Generator: Adobe Illustrator 16.0.0, SVG Export Plug-In . SVG Version: 6.00 Build 0)  -->
<!DOCTYPE svg PUBLIC "-//W3C//DTD SVG 1.1//EN" "http://www.w3.org/Graphics/SVG/1.1/DTD/svg11.dtd">
<svg version="1.1" xmlns="http://www.w3.org/2000/svg" xmlns:xlink="http://www.w3.org/1999/xlink" x="0px" y="0px" width="660px"
	 height="665px" viewBox="0 0 660 665" enable-background="new 0 0 660 665" xml:space="preserve">
<g id="Layer_1">
	<polygon fill="#00AEEF" points="127.565,228.037 308.5,123.574 489.436,228.037 489.436,436.963 308.5,541.426 127.565,436.963 	
		"/>
	<polyline fill="none" stroke="#FFFFFF" stroke-width="23" stroke-miterlimit="10" points="488.504,379.667 488.504,434.481 
		311,536.964 133.497,434.481 133.497,382.334 	"/>
	<polyline fill="none" stroke="#FFFFFF" stroke-width="23" stroke-miterlimit="10" points="133.497,281.667 133.497,229.518 
		311,127.037 488.504,229.518 488.504,277.667 	"/>
	<line fill="none" stroke="#FFFFFF" stroke-width="10" stroke-miterlimit="10" x1="133.497" y1="261" x2="313.383" y2="163.667"/>
	<line fill="none" stroke="#FFFFFF" stroke-width="10" stroke-miterlimit="10" x1="488.504" y1="261" x2="308.5" y2="163.667"/>
	
		<line fill="none" stroke="#FFFFFF" stroke-width="10" stroke-miterlimit="10" x1="133.497" y1="404.275" x2="266.974" y2="477.466"/>
	
		<line fill="none" stroke="#FFFFFF" stroke-width="10" stroke-miterlimit="10" x1="488.504" y1="404.275" x2="354.013" y2="478.023"/>
	<line fill="none" stroke="#FFFFFF" stroke-width="15" stroke-miterlimit="10" x1="441.334" y1="281.667" x2="500" y2="281.667"/>
	
		<line fill="none" stroke="#FFFFFF" stroke-width="15" stroke-miterlimit="10" x1="121.667" y1="281.667" x2="171.667" y2="281.667"/>
	
		<line fill="none" stroke="#FFFFFF" stroke-width="15" stroke-miterlimit="10" x1="442.667" y1="379.667" x2="499.334" y2="379.667"/>
	<line fill="none" stroke="#FFFFFF" stroke-width="15" stroke-miterlimit="10" x1="122" y1="379.667" x2="170" y2="379.667"/>
	
		<line fill="none" stroke="#FFFFFF" stroke-width="6" stroke-miterlimit="10" x1="262.361" y1="480.002" x2="311.079" y2="447.197"/>
	<line fill="none" stroke="#FFFFFF" stroke-width="6" stroke-miterlimit="10" x1="356.337" y1="479.2" x2="310" y2="448"/>
	
		<line fill="none" stroke="#FFFFFF" stroke-width="10" stroke-miterlimit="10" x1="266.974" y1="511.545" x2="313.383" y2="477.466"/>
	<line fill="none" stroke="#FFFFFF" stroke-width="10" stroke-miterlimit="10" x1="354.013" y1="511.545" x2="308.5" y2="478.023"/>
	<text transform="matrix(1 0 0 1 159.6665 323.4995)"><tspan x="0" y="0" fill="#FFFFFF" font-family="'LeagueSpartan-Bold'" font-size="43"> CODING &amp;</tspan><tspan x="0" y="51.6" fill="#FFFFFF" font-family="'LeagueSpartan-Bold'" font-size="43"> DEBUGGING</tspan></text>
</g>
<g id="Layer_3">
</g>
</svg>
