<?xml version="1.0" encoding="utf-8"?>
<!-- Generator: Adobe Illustrator 16.0.0, SVG Export Plug-In . SVG Version: 6.00 Build 0)  -->
<!DOCTYPE svg PUBLIC "-//W3C//DTD SVG 1.1//EN" "http://www.w3.org/Graphics/SVG/1.1/DTD/svg11.dtd">
<svg version="1.1" id="Layer_2" xmlns="http://www.w3.org/2000/svg" xmlns:xlink="http://www.w3.org/1999/xlink" x="0px" y="0px"
	 width="612px" height="792px" viewBox="0 0 612 792" enable-background="new 0 0 612 792" xml:space="preserve">
<g>
	<polyline fill="none" stroke="#FFFFFF" stroke-width="23" stroke-miterlimit="10" points="486.006,398.248 486.006,453.063 
		308.502,555.545 130.999,453.063 130.999,400.915 	"/>
	<polyline fill="none" stroke="#FFFFFF" stroke-width="23" stroke-miterlimit="10" points="130.999,300.248 130.999,248.099 
		308.502,145.618 486.006,248.099 486.006,296.248 	"/>
	
		<line fill="none" stroke="#FFFFFF" stroke-width="10" stroke-miterlimit="10" x1="130.999" y1="279.581" x2="310.885" y2="182.248"/>
	
		<line fill="none" stroke="#FFFFFF" stroke-width="10" stroke-miterlimit="10" x1="486.006" y1="279.581" x2="306.002" y2="182.248"/>
	
		<line fill="none" stroke="#FFFFFF" stroke-width="10" stroke-miterlimit="10" x1="130.999" y1="422.856" x2="264.476" y2="496.047"/>
	
		<line fill="none" stroke="#FFFFFF" stroke-width="10" stroke-miterlimit="10" x1="486.006" y1="422.856" x2="351.515" y2="496.604"/>
	
		<line fill="none" stroke="#FFFFFF" stroke-width="15" stroke-miterlimit="10" x1="438.836" y1="300.248" x2="497.502" y2="300.248"/>
	
		<line fill="none" stroke="#FFFFFF" stroke-width="15" stroke-miterlimit="10" x1="119.169" y1="300.248" x2="169.168" y2="300.248"/>
	
		<line fill="none" stroke="#FFFFFF" stroke-width="15" stroke-miterlimit="10" x1="440.169" y1="398.248" x2="496.836" y2="398.248"/>
	
		<line fill="none" stroke="#FFFFFF" stroke-width="15" stroke-miterlimit="10" x1="119.502" y1="398.248" x2="167.501" y2="398.248"/>
	<g>
		
			<line fill="none" stroke="#FFFFFF" stroke-width="15" stroke-miterlimit="10" x1="38.835" y1="300.248" x2="85.502" y2="300.248"/>
		
			<line fill="none" stroke="#FFFFFF" stroke-width="15" stroke-miterlimit="10" x1="38.835" y1="398.248" x2="86.169" y2="398.248"/>
	</g>
	<text transform="matrix(1 0 0 1 184.835 387.7422)" fill="#F7BC19" font-family="'Impact'" font-size="80.5875">OPTIMA</text>
	
		<line fill="none" stroke="#FFFFFF" stroke-width="6" stroke-miterlimit="10" x1="259.863" y1="498.583" x2="308.581" y2="465.778"/>
	
		<line fill="none" stroke="#FFFFFF" stroke-width="6" stroke-miterlimit="10" x1="353.839" y1="497.781" x2="307.502" y2="466.581"/>
	
		<line fill="none" stroke="#FFFFFF" stroke-width="10" stroke-miterlimit="10" x1="264.476" y1="530.126" x2="310.885" y2="496.047"/>
	
		<line fill="none" stroke="#FFFFFF" stroke-width="10" stroke-miterlimit="10" x1="351.515" y1="530.126" x2="306.002" y2="496.604"/>
	<g>
		
			<line fill="none" stroke="#FFFFFF" stroke-width="15" stroke-miterlimit="10" x1="535.502" y1="300.248" x2="582.169" y2="300.248"/>
		
			<line fill="none" stroke="#FFFFFF" stroke-width="15" stroke-miterlimit="10" x1="535.502" y1="398.248" x2="582.836" y2="398.248"/>
	</g>
	<text transform="matrix(0.7433 0 0 1 33.502 375.0244)" fill="#FFFFFF" font-family="'Bahnschrift'" font-size="66.669">2K</text>
	<text transform="matrix(1 0 0 1 530.8359 373.5806)" fill="#FFFFFF" font-family="'Bahnschrift'" font-size="72">19</text>
	<text transform="matrix(1 0 0 1 251.5 309.2476)" fill="#FFFFFF" font-family="'Bahnschrift'" font-size="21">NIT TRICHY’S</text>
	<polyline fill="none" stroke="#FFFFFF" stroke-width="6" stroke-miterlimit="10" points="282.222,260.585 308.502,234.305 
		334.781,260.584 	"/>
	<polyline fill="none" stroke="#FFFFFF" stroke-width="6" stroke-miterlimit="10" points="288.222,275.365 309.002,254.585 
		329.781,275.364 	"/>
</g>
</svg>
